REM DIRINDEX 1\2,1\3,1\4,1\5
REM DIRNAME cjc044,folder01,folder02,folder03,folder04
TITLE ""
FILE "1800_083.mp3" MP3
  TRACK 01 AUDIO
    TITLE "2:cjc044_2177"
    INDEX 01 00:00:00
  TRACK 02 AUDIO
    TITLE "0:"
    INDEX 01 00:01:22
  TRACK 03 AUDIO
    TITLE "3:cjc044_2178"
    INDEX 01 00:02:06
  TRACK 04 AUDIO
    TITLE "0:"
    INDEX 01 00:03:37
  TRACK 05 AUDIO
    TITLE "4:cjc044_2179"
    INDEX 01 00:04:23
  TRACK 06 AUDIO
    TITLE "0:"
    INDEX 01 00:05:57
  TRACK 07 AUDIO
    TITLE "5:cjc044_2180"
    INDEX 01 00:06:31
  TRACK 08 AUDIO
    TITLE "0:"
    INDEX 01 00:10:16
  TRACK 09 AUDIO
    TITLE "2:cjc044_2181"
    INDEX 01 00:11:72
  TRACK 10 AUDIO
    TITLE "0:"
    INDEX 01 00:13:04
  TRACK 11 AUDIO
    TITLE "3:cjc044_2182"
    INDEX 01 00:13:61
  TRACK 12 AUDIO
    TITLE "0:"
    INDEX 01 00:14:64
  TRACK 13 AUDIO
    TITLE "4:cjc044_2183"
    INDEX 01 00:15:46
  TRACK 14 AUDIO
    TITLE "0:"
    INDEX 01 00:16:55
  TRACK 15 AUDIO
    TITLE "5:cjc044_2184"
    INDEX 01 00:17:35
  TRACK 16 AUDIO
    TITLE "0:"
    INDEX 01 00:20:63
  TRACK 17 AUDIO
    TITLE "2:cjc044_2185"
    INDEX 01 00:22:50
  TRACK 18 AUDIO
    TITLE "0:"
    INDEX 01 00:23:73
  TRACK 19 AUDIO
    TITLE "3:cjc044_2186"
    INDEX 01 00:24:63
  TRACK 20 AUDIO
    TITLE "0:"
    INDEX 01 00:26:15
  TRACK 21 AUDIO
    TITLE "4:cjc044_2187"
    INDEX 01 00:27:02
  TRACK 22 AUDIO
    TITLE "0:"
    INDEX 01 00:28:17
  TRACK 23 AUDIO
    TITLE "5:cjc044_2188"
    INDEX 01 00:28:62
  TRACK 24 AUDIO
    TITLE "0:"
    INDEX 01 00:32:31
  TRACK 25 AUDIO
    TITLE "2:cjc044_2189"
    INDEX 01 00:34:18
  TRACK 26 AUDIO
    TITLE "0:"
    INDEX 01 00:35:49
  TRACK 27 AUDIO
    TITLE "3:cjc044_2190"
    INDEX 01 00:36:36
  TRACK 28 AUDIO
    TITLE "0:"
    INDEX 01 00:37:46
  TRACK 29 AUDIO
    TITLE "4:cjc044_2191"
    INDEX 01 00:38:28
  TRACK 30 AUDIO
    TITLE "0:"
    INDEX 01 00:39:56
  TRACK 31 AUDIO
    TITLE "5:cjc044_2192"
    INDEX 01 00:40:30
  TRACK 32 AUDIO
    TITLE "0:"
    INDEX 01 00:43:58
  TRACK 33 AUDIO
    TITLE "2:cjc044_2193"
    INDEX 01 00:45:49
  TRACK 34 AUDIO
    TITLE "0:"
    INDEX 01 00:46:62
  TRACK 35 AUDIO
    TITLE "3:cjc044_2194"
    INDEX 01 00:47:46
  TRACK 36 AUDIO
    TITLE "0:"
    INDEX 01 00:48:63
  TRACK 37 AUDIO
    TITLE "4:cjc044_2195"
    INDEX 01 00:49:47
  TRACK 38 AUDIO
    TITLE "0:"
    INDEX 01 00:50:64
  TRACK 39 AUDIO
    TITLE "5:cjc044_2196"
    INDEX 01 00:51:34
  TRACK 40 AUDIO
    TITLE "0:"
    INDEX 01 00:55:51
  TRACK 41 AUDIO
    TITLE "2:cjc044_2197"
    INDEX 01 00:57:35
  TRACK 42 AUDIO
    TITLE "0:"
    INDEX 01 00:58:42
  TRACK 43 AUDIO
    TITLE "3:cjc044_2198"
    INDEX 01 00:59:28
  TRACK 44 AUDIO
    TITLE "0:"
    INDEX 01 01:00:51
  TRACK 45 AUDIO
    TITLE "4:cjc044_2199"
    INDEX 01 01:01:36
  TRACK 46 AUDIO
    TITLE "0:"
    INDEX 01 01:02:46
  TRACK 47 AUDIO
    TITLE "5:cjc044_2200"
    INDEX 01 01:03:27
  TRACK 48 AUDIO
    TITLE "0:"
    INDEX 01 01:05:73
  TRACK 49 AUDIO
    TITLE "2:cjc044_2201"
    INDEX 01 01:07:61
  TRACK 50 AUDIO
    TITLE "0:"
    INDEX 01 01:09:26
  TRACK 51 AUDIO
    TITLE "3:cjc044_2202"
    INDEX 01 01:10:04
  TRACK 52 AUDIO
    TITLE "0:"
    INDEX 01 01:10:67
  TRACK 53 AUDIO
    TITLE "4:cjc044_2203"
    INDEX 01 01:11:54
  TRACK 54 AUDIO
    TITLE "0:"
    INDEX 01 01:13:18
  TRACK 55 AUDIO
    TITLE "5:cjc044_2204"
    INDEX 01 01:13:71
  TRACK 56 AUDIO
    TITLE "0:"
    INDEX 01 01:16:58
  TRACK 57 AUDIO
    TITLE "2:cjc044_2205"
    INDEX 01 01:18:39
  TRACK 58 AUDIO
    TITLE "0:"
    INDEX 01 01:19:60
  TRACK 59 AUDIO
    TITLE "3:cjc044_2206"
    INDEX 01 01:20:46
  TRACK 60 AUDIO
    TITLE "0:"
    INDEX 01 01:21:72
  TRACK 61 AUDIO
    TITLE "4:cjc044_2207"
    INDEX 01 01:22:56
  TRACK 62 AUDIO
    TITLE "0:"
    INDEX 01 01:24:02
  TRACK 63 AUDIO
    TITLE "5:cjc044_2208"
    INDEX 01 01:24:47
  TRACK 64 AUDIO
    TITLE "0:"
    INDEX 01 01:27:67
